# xmcd
#
# Track frame offsets:
#	180
#	8836
#	19494
#	31429
#	42835
#	53236
#	61935
#	75892
#	85154
#	97520
#	107863
#	116422
#
# Disc length: 1747 seconds
#
# Revision: 0
# Processed by: cddbd v1.4PL0 Copyright (c) Steve Scherf et al.
# Submitted via: dBpowerAMP V4.0
#
DISCID=8306d10c
DTITLE=Serge Lebrun - Hommage au Soldat
DYEAR=1900
DGENRE=Country
TTITLE0=L'adieu Du Soldat
TTITLE1=Pou Oublier Cette Vie
TTITLE2=Le Cowboy Solitaire
TTITLE3=Le $.20 De Valcartier
TTITLE4=Au Bord De La Mer Argenté
TTITLE5=Viens T'asseoir Près De Moi
TTITLE6=Grand-Maman
TTITLE7=Réponse à La Prière D'une Mère
TTITLE8=Quel Bonheur D'être Canadien
TTITLE9=Les Jubilés D'or
TTITLE10=Donne Ton Coeur
TTITLE11=Prières D'une Mère
EXTD=
EXTT0=
EXTT1=
EXTT2=
EXTT3=
EXTT4=
EXTT5=
EXTT6=
EXTT7=
EXTT8=
EXTT9=
EXTT10=
EXTT11=
PLAYORDER=
